HIERARCHY
ROOT ui
{
	 OFFSET 0 0 0
	 CHANNELS 3 XPosition YPosition Z Position
	 EndSite
	 {
	 OFFSET 0 -1 0
	 }
}
ROOT li
{
	 OFFSET 0 0 0
	 CHANNELS 3 XPosition YPosition Z Position
	 EndSite
	 {
	 OFFSET 0 -1 0
	 }
}
ROOT ul
{
	 OFFSET 0 0 0
	 CHANNELS 3 XPosition YPosition Z Position
	 EndSite
	 {
	 OFFSET 0 -1 0
	 }
}
ROOT ll
{
	 OFFSET 0 0 0
	 CHANNELS 3 XPosition YPosition Z Position
	 EndSite
	 {
	 OFFSET 0 -1 0
	 }
}
ROOT tt
{
	 OFFSET 0 0 0
	 CHANNELS 3 XPosition YPosition Z Position
	 EndSite
	 {
	 OFFSET 0 -1 0
	 }
}
ROOT tb
{
	 OFFSET 0 0 0
	 CHANNELS 3 XPosition YPosition Z Position
	 EndSite
	 {
	 OFFSET 0 -1 0
	 }
}
ROOT td
{
	 OFFSET 0 0 0
	 CHANNELS 3 XPosition YPosition Z Position
	 EndSite
	 {
	 OFFSET 0 -1 0
	 }
}
ROOT v
{
	 OFFSET 0 0 0
	 CHANNELS 3 XPosition YPosition Z Position
	 EndSite
	 {
	 OFFSET 0 -1 0
	 }
}
ROOT bn
{
	 OFFSET 0 0 0
	 CHANNELS 3 XPosition YPosition Z Position
	 EndSite
	 {
	 OFFSET 0 -1 0
	 }
}
MOTION
Frames: 32
Frame Time: 0.002
-0.006620384216308593	4.203400015830994E-4	0		0.4505119323730469	-2.411426025390625	0		-1.0557078857421875	0.09425269317626953	0		-0.768435791015625	-2.593855224609375	0		1.3580086669921876	-0.8177072143554688	0		3.196919921875	-0.06064580154418946	0		4.728900390625	-0.07045748138427735	0		5.51948876953125	0.07939104461669921	0		-0.21356929016113282	5.91687109375	0		
-4.310399889945984E-4	0.0028485970497131347	0		0.4633840637207031	-2.418112548828125	0		-0.9715973510742187	0.08796620178222657	0		-0.7644967651367187	-2.592335693359375	0		1.3660284423828124	-0.824425537109375	0		3.189218994140625	-0.047368724822998046	0		4.72412548828125	-0.06435299682617188	0		5.52572705078125	0.0853078384399414	0		-0.176802978515625	5.92200634765625	0		
0.004669249057769775	0.0052990541458129885	0		0.4423051452636719	-2.411431640625	0		-1.0474217529296874	0.0973565673828125	0		-0.7747603759765626	-2.60165673828125	0		1.36512646484375	-0.8150380859375	0		3.206061767578125	-0.06933634948730469	0		4.7371767578125	-0.06642086029052735	0		5.5278037109375	0.08428176116943359	0		-0.174210693359375	5.91950439453125	0		
0.006640023231506348	0.00479901123046875	0		0.5229486694335937	-2.4228076171875	0		-0.9734891357421875	0.09218831634521485	0		-0.7589077758789062	-2.59123583984375	0		1.367023681640625	-0.8156602172851563	0		3.2372890625	-0.045432300567626954	0		4.73914111328125	-0.06734554290771484	0		5.53570703125	0.07622295379638672	0		-0.03845183181762695	5.94260986328125	0		
0.008502730369567871	0.0043216791152954105	0		0.4617440490722656	-2.4096572265625	0		-0.9716188354492188	0.09179568481445312	0		-0.7572694091796875	-2.59164697265625	0		1.3926966552734374	-0.8275108032226562	0		3.204957275390625	-0.06382463455200195	0		4.73693408203125	-0.07418878936767578	0		5.53165087890625	0.08233148956298827	0		-0.2184928436279297	5.9040830078125	0		
0.003182076930999756	-0.0020536930561065674	0		0.5231014404296875	-2.427790771484375	0		-0.9698681030273437	0.09142568969726562	0		-0.7577620239257813	-2.594012939453125	0		1.388436279296875	-0.8220121459960937	0		3.201770751953125	-0.05748670196533203	0		4.74764892578125	-0.07712776184082032	0		5.534228515625	0.0654136962890625	0		-0.20115451049804686	5.91348828125	0		
-0.04012747573852539	0.005012394905090332	0		0.44462405395507815	-2.41838623046875	0		-1.0333533935546875	0.0817864761352539	0		-0.7335079345703125	-2.608622802734375	0		1.3749300537109375	-0.8273800659179688	0		3.22221435546875	-0.07336585235595704	0		4.74316845703125	-0.08585832214355468	0		5.54582373046875	0.06244718933105469	0		-0.18198974609375	5.9208984375	0		
0.013329237937927245	0.0030579960346221926	0		0.5059308776855469	-2.417464599609375	0		-0.945794677734375	0.08853498840332032	0		-0.7261575927734375	-2.6020234375	0		1.382414306640625	-0.8209390258789062	0		3.20704052734375	-0.04081415557861328	0		4.74580712890625	-0.07061647033691407	0		5.53649609375	0.07975960540771485	0		-0.16310807800292967	5.9173369140625	0		
-0.034302452087402346	0.007238574981689453	0		0.478081298828125	-2.417538818359375	0		-0.9563675537109375	0.09737709045410156	0		-0.7040123901367188	-2.60155908203125	0		1.392654296875	-0.8234931640625	0		3.216006591796875	-0.07348570251464843	0		4.747123046875	-0.07131183624267579	0		5.5437236328125	0.06994242095947266	0		-0.1754737091064453	5.907146484375	0		
0.01581845760345459	0.002376133918762207	0		0.4931067199707031	-2.416049072265625	0		-0.9642701416015625	0.09021849822998047	0		-0.7509292602539063	-2.593304443359375	0		1.3727786865234375	-0.8226784057617188	0		3.2122470703125	-0.06697151184082031	0		4.75114208984375	-0.08498841094970704	0		5.53491845703125	0.07135480499267578	0		-0.17390663146972657	5.9068349609375	0		
-0.03515471649169922	0.0036630098819732666	0		0.47486541748046873	-2.4251591796875	0		-0.9632520751953125	0.08998989868164063	0		-0.7521051025390625	-2.5955244140625	0		1.3916927490234374	-0.8272566528320312	0		3.218177001953125	-0.07452275848388672	0		4.7501376953125	-0.08656073760986328	0		5.54001318359375	0.0776650619506836	0		-0.1725159912109375	5.9065556640625	0		
0.01062216567993164	-0.004096654891967774	0		0.47660955810546873	-2.42245849609375	0		-1.0383841552734374	0.09063909912109375	0		-0.7665492553710938	-2.6085693359375	0		1.3594910888671874	-0.8282310180664062	0		3.219264892578125	-0.05397833251953125	0		4.75505712890625	-0.08115303039550781	0		5.55167333984375	0.05894808578491211	0		-0.19124281311035157	5.9115302734375	0		
-0.06058784484863281	0.0034818110466003417	0		0.4522351989746094	-2.417434814453125	0		-1.0236390380859375	0.09331147766113282	0		-0.7259721069335937	-2.60720458984375	0		1.3841827392578125	-0.8258087158203125	0		3.21973291015625	-0.07539158630371094	0		4.75575927734375	-0.0816558074951172	0		5.5415869140625	0.07652205657958984	0		-0.1702537841796875	5.90608740234375	0		
0.018960575103759765	0.0013905210494995117	0		0.5076086120605469	-2.42328271484375	0		-1.0330574951171876	0.09427745056152344	0		-0.77243310546875	-2.596837646484375	0		1.3816575927734376	-0.8300521850585938	0		3.246370849609375	-0.06906285095214844	0		4.752251953125	-0.08807078552246093	0		5.548076171875	0.0689515609741211	0		-0.16936871337890624	5.90589404296875	0		
-0.03258933639526367	0.002801871061325073	0		0.5038636169433593	-2.4284404296875	0		-0.9606673583984375	0.0893361587524414	0		-0.7022144165039063	-2.604769287109375	0		1.397106201171875	-0.8254708251953125	0		3.220724853515625	-0.07611090087890625	0		4.74777392578125	-0.08043501281738281	0		5.538515625	0.06860389709472656	0		-0.16863151550292968	5.90572509765625	0		
0.01971891403198242	0.0010556329488754272	0		0.5040701599121094	-2.4286201171875	0		-0.9603402099609375	0.08922672271728516	0		-0.7499219970703125	-2.5963447265625	0		1.3943555908203125	-0.8286588134765625	0		3.2161240234375	-0.0693641128540039	0		4.75791015625	-0.0969307632446289	0		5.54292138671875	0.07513713073730469	0		-0.20209190368652344	5.89996533203125	0		
-0.04011629486083984	-0.004395226001739502	0		0.4772161865234375	-2.426470458984375	0		-0.948221923828125	0.07899626159667969	0		-0.728992431640625	-2.61268701171875	0		1.379491943359375	-0.833685546875	0		3.230258056640625	-0.07780339050292968	0		4.76220361328125	-0.09132518005371094	0		5.54905078125	0.06568589019775391	0		-0.18452102661132813	5.90664306640625	0		
0.034047004699707034	-0.004363937854766846	0		0.4823544311523438	-2.41966845703125	0		-1.0109199829101563	0.09163618469238281	0		-0.7578136596679688	-2.6014462890625	0		1.40871630859375	-0.825196044921875	0		3.250708740234375	-0.052286930084228515	0		4.7684482421875	-0.08370913696289063	0		5.54921044921875	0.06533934020996093	0		-0.1510458221435547	5.913150390625	0		
0.02021112823486328	6.878049969673156E-4	0		0.5093477478027344	-2.422104736328125	0		-0.9507572631835938	0.0958737564086914	0		-0.6977945556640625	-2.601217529296875	0		1.4037119140625	-0.8322969360351562	0		3.205539306640625	-0.07599285888671875	0		4.7693779296875	-0.09900027465820313	0		5.53934228515625	0.06714543914794922	0		-0.16681687927246094	5.905232421875	0		
0.02028472900390625	5.903180241584778E-4	0		0.4772903747558594	-2.42684765625	0		-0.9597609252929687	0.08891084289550781	0		-0.7378223266601562	-2.602830810546875	0		1.4007252197265625	-0.835402587890625	0		3.221597900390625	-0.07737409210205078	0		4.76047216796875	-0.09714173126220703	0		5.53941796875	0.06687625885009765	0		-0.16655960083007812	5.90514111328125	0		
0.01730555534362793	-0.002462847948074341	0		0.5042592163085937	-2.429259521484375	0		-0.959703369140625	0.08884761810302734	0		-0.7398560180664062	-2.60487646484375	0		1.3797723388671874	-0.8342827758789062	0		3.226570068359375	-0.08460071563720703	0		4.76950146484375	-0.09945399475097656	0		5.54437060546875	0.057590999603271485	0		-0.03309734344482422	5.92651708984375	0		
-0.0356441650390625	-0.0019287830591201783	0		0.45134396362304685	-2.4217353515625	0		-1.0297081298828126	0.0845978240966797	0		-0.7378363037109374	-2.60296533203125	0		1.4007900390625	-0.8356324462890625	0		3.242857421875	-0.063929443359375	0		4.75855859375	-0.09849812316894531	0		5.5494990234375	0.06434613800048829	0		-0.2002615203857422	5.89937548828125	0		
0.0204334774017334	3.483110070228577E-4	0		0.48238003540039065	-2.42017431640625	0		-1.026509765625	0.097502197265625	0		-0.7598338012695313	-2.603773681640625	0		1.3618863525390625	-0.8302720336914062	0		3.22666064453125	-0.08485823822021485	0		4.77367236328125	-0.0928082504272461	0		5.5436513671875	0.07326911163330078	0		-0.16607035827636718	5.90490966796875	0		
0.02048872184753418	2.801940143108368E-4	0		0.4824181823730469	-2.420245849609375	0		-0.9504705810546875	0.09555919647216797	0		-0.7357637939453125	-2.601115234375	0		1.40390966796875	-0.8328370971679687	0		3.24787646484375	-0.07119374847412109	0		4.76964599609375	-0.09986302947998046	0		5.54370703125	0.0731619873046875	0		-0.16597341918945313	5.9048427734375	0		
0.020559768676757812	2.1676699817180632E-4	0		0.5323786010742187	-2.4298896484375	0		-0.9594800415039062	0.08860185241699219	0		-0.747625244140625	-2.595038818359375	0		1.3799581298828125	-0.8346233520507812	0		3.221867919921875	-0.0779585189819336	0		4.7656474609375	-0.10588504791259766	0		5.54969677734375	0.06602304077148438	0		-0.03263752746582031	5.92623388671875	0		
-0.03941510772705078	-0.00514601182937622	0		0.4775069580078125	-2.427308837890625	0		-0.9593897094726562	0.08853795623779297	0		-0.7026653442382812	-2.607623291015625	0		1.40103955078125	-0.8359205322265625	0		3.21704052734375	-0.0709463882446289	0		4.75882080078125	-0.09884288024902343	0		5.54386865234375	0.07305706787109376	0		-0.15171585083007813	5.91455615234375	0		
0.020763362884521484	1.0091499984264374E-4	0		0.47867678833007815	-2.424372802734375	0		-1.0252847900390625	0.0882381820678711	0		-0.773442626953125	-2.59986328125	0		1.3591861572265624	-0.8334772338867188	0		3.232909423828125	-0.09215753173828126	0		4.76791064453125	-0.10096000671386719	0		5.554771484375	0.05492501449584961	0		-0.1827594451904297	5.9058583984375	0		
-0.028048269271850584	0.004615111827850342	0		0.4849272766113281	-2.417489990234375	0		-0.934130126953125	0.08911729431152343	0		-0.7203204956054687	-2.604540283203125	0		1.4043441162109376	-0.83303466796875	0		3.221363037109375	-0.0650323715209961	0		4.77414306640625	-0.09302243804931641	0		5.5541064453125	0.07195314788818359	0		-0.15159414672851562	5.91444287109375	0		
0.021072050094604493	-2.4929998908191917E-6	0		0.483099853515625	-2.420509765625	0		-0.94989111328125	0.09523706817626953	0		-0.7669916381835937	-2.594058837890625	0		1.40452685546875	-0.8330635986328125	0		3.218325927734375	-0.08299744415283203	0		4.77716357421875	-0.10603336334228515	0		5.54428759765625	0.07310367584228515	0		-0.19969709777832031	5.8989462890625	0		
0.021278839111328125	-5.0301000475883484E-5	0		0.5072655029296875	-2.427826416015625	0		-0.9587661743164062	0.08827710723876953	0		-0.7107789306640625	-2.597766845703125	0		1.40171337890625	-0.8360529174804687	0		3.222591552734375	-0.07803717803955078	0		4.766373046875	-0.10587284851074219	0		5.5444931640625	0.07315023040771484	0		-0.1655240478515625	5.90450146484375	0		
0.01849152946472168	-0.0030616350173950195	0		0.479593017578125	-2.424541015625	0		-1.034515625	0.08908980560302734	0		-0.7725152587890625	-2.600111083984375	0		1.380988525390625	-0.8348319091796875	0		3.25568798828125	-0.09140512084960938	0		4.7666220703125	-0.10583309173583984	0		5.54473876953125	0.07320407104492188	0		-0.16538383483886718	5.9044521484375	0		
0.02181241035461426	-1.4152300357818604E-4	0		0.4799245910644531	-2.42457763671875	0		-0.95320166015625	0.09109213256835938	0		-0.7253102416992188	-2.61171142578125	0		1.38129052734375	-0.8348516845703124	0		3.223369873046875	-0.05701228332519531	0		4.7750595703125	-0.09288288116455078	0		5.54502392578125	0.0732617416381836	0		-0.15109297180175782	5.91424169921875	0		
